<?xml version="1.0" standalone="no"?>
<!DOCTYPE svg PUBLIC "-//W3C//DTD SVG 20010904//EN"
 "http://www.w3.org/TR/2001/REC-SVG-20010904/DTD/svg10.dtd">
<svg version="1.0" xmlns="http://www.w3.org/2000/svg"
 width="640.000000pt" height="563.000000pt" viewBox="0 0 640.000000 563.000000"
 preserveAspectRatio="xMidYMid meet">

<g transform="translate(0.000000,563.000000) scale(0.100000,-0.100000)"
fill="#000000" stroke="none">
<path d="M0 2815 l0 -2815 3200 0 3200 0 0 2815 0 2815 -3200 0 -3200 0 0
-2815z m1972 2566 l28 -31 0 -236 0 -235 -25 -25 c-25 -25 -28 -26 -156 -22
-129 3 -131 3 -155 31 -24 28 -24 29 -24 260 0 305 -4 300 189 293 114 -4 115
-4 143 -35z m-751 -40 c24 -19 24 -21 27 -245 3 -195 1 -231 -14 -261 -21 -46
-34 -52 -167 -82 -121 -27 -153 -25 -167 13 -6 14 -10 120 -10 235 0 287 5
297 167 335 123 28 135 28 164 5z m1405 -47 c30 -8 63 -27 80 -45 l29 -30 3
-243 c4 -310 12 -299 -175 -250 -119 32 -129 37 -153 77 -18 29 -20 52 -20
255 0 139 4 231 11 243 22 41 65 40 225 -7z m-2116 -173 c6 -12 10 -107 10
-241 0 -297 3 -290 -174 -365 -117 -48 -141 -50 -157 -8 -12 32 -12 418 1 464
14 51 55 85 156 129 101 44 148 50 164 21z m2768 -80 c160 -80 162 -85 162
-373 0 -177 -3 -217 -16 -236 -8 -12 -21 -22 -28 -22 -7 0 -60 22 -117 49
-101 47 -134 72 -158 118 -14 28 -15 466 -1 494 17 30 52 23 158 -30z m622
-387 c52 -31 106 -66 118 -77 50 -46 52 -60 52 -316 0 -306 9 -296 -173 -188
-78 45 -112 82 -127 135 -5 20 -10 135 -10 254 0 184 2 219 16 232 8 9 19 16
23 16 3 0 49 -25 101 -56z m2297 16 c9 -18 13 -86 13 -235 0 -281 2 -277 -165
-358 -101 -50 -123 -57 -143 -48 l-23 11 3 249 c4 300 -4 282 148 359 114 58
147 62 167 22z m-4389 -157 c-27 -2 -69 -2 -95 0 -27 2 -5 3 47 3 52 0 74 -1
48 -3z m-200 -10 c-21 -2 -55 -2 -75 0 -21 2 -4 4 37 4 41 0 58 -2 38 -4z
m325 0 c-7 -2 -21 -2 -30 0 -10 3 -4 5 12 5 17 0 24 -2 18 -5z m-460 -10 c-13
-2 -33 -2 -45 0 -13 2 -3 4 22 4 25 0 35 -2 23 -4z m525 -1109 c2 -1166 4
-1126 -51 -1139 -12 -3 -107 -4 -212 -3 l-190 3 202 3 c216 2 226 5 238 55 3
12 4 502 3 1088 -3 1043 -3 1067 -23 1090 l-19 24 24 -23 25 -23 3 -1075z
m-610 1099 c-10 -2 -28 -2 -40 0 -13 2 -5 4 17 4 22 1 32 -1 23 -4z m-75 -10
c-7 -2 -21 -2 -30 0 -10 3 -4 5 12 5 17 0 24 -2 18 -5z m-60 -10 c-7 -2 -21
-2 -30 0 -10 3 -4 5 12 5 17 0 24 -2 18 -5z m-60 -10 c-7 -2 -19 -2 -25 0 -7
3 -2 5 12 5 14 0 19 -2 13 -5z m-50 -10 c-7 -2 -19 -2 -25 0 -7 3 -2 5 12 5
14 0 19 -2 13 -5z m-88 -19 c-27 -7 -57 -13 -65 -13 -21 1 70 27 95 27 11 0
-2 -6 -30 -14z m1407 -1 c-35 -3 -45 -9 -52 -29 -6 -16 -10 -436 -10 -1080 0
-1165 -3 -1111 62 -1139 18 -8 26 -14 17 -15 -28 0 -68 39 -79 78 -8 26 -10
365 -8 1098 2 881 5 1064 17 1077 9 12 27 16 55 15 l41 -1 -43 -4z m75 -9 c-3
-3 -12 -4 -19 -1 -8 3 -5 6 6 6 11 1 17 -2 13 -5z m-1582 -13 c-11 -5 -36 -11
-55 -14 -35 -6 -34 -6 5 8 43 14 84 19 50 6z m1695 -17 c55 -20 22 -16 -45 6
-33 11 -44 17 -25 13 19 -3 50 -11 70 -19z m-1820 -19 c-19 -7 -42 -13 -50
-13 -8 0 1 6 20 13 19 7 42 13 50 13 8 0 -1 -6 -20 -13z m4672 -2 c16 -15 18
-36 18 -253 0 -230 -1 -238 -23 -271 -27 -41 -45 -50 -162 -84 -161 -46 -167
-35 -163 270 4 275 -2 264 188 323 114 36 119 36 142 15z m-2719 -19 c43 -14
77 -28 74 -30 -2 -2 -41 9 -88 25 -46 16 -80 30 -74 30 5 1 45 -11 88 -25z
m1825 -5 c95 -24 122 -36 145 -60 l27 -29 0 -237 c0 -229 -1 -237 -22 -260
-27 -29 -34 -29 -154 3 -168 43 -174 55 -174 354 0 207 1 221 20 240 11 11 25
20 31 20 5 0 63 -14 127 -31z m-3939 -23 c-8 -8 -172 -66 -176 -62 -2 2 33 18
79 34 79 29 107 37 97 28z m2331 -52 c50 -20 89 -38 87 -40 -3 -4 -178 64
-186 72 -10 10 15 2 99 -32z m-2530 -24 c-8 -5 -19 -10 -25 -10 -5 0 -3 5 5
10 8 5 20 10 25 10 6 0 3 -5 -5 -10z m-50 -20 c-8 -5 -19 -10 -25 -10 -5 0 -3
5 5 10 8 5 20 10 25 10 6 0 3 -5 -5 -10z m2730 -20 c19 -11 31 -19 25 -19 -5
0 -26 8 -45 19 -19 11 -30 19 -25 19 6 0 26 -8 45 -19z m-2837 -25 c-125 -58
-113 72 -113 -1181 0 -827 3 -1083 12 -1092 8 -8 8 -12 1 -12 -6 0 -14 7 -17
16 -3 9 -6 501 -6 1093 l0 1078 23 34 c20 31 133 99 162 98 6 0 -22 -15 -62
-34z m3017 -60 c72 -36 130 -67 130 -70 0 -5 -259 122 -269 131 -15 14 25 -4
139 -61z m260 -163 c8 -8 -13 4 -48 28 -35 24 -66 48 -70 54 -7 12 95 -59 118
-82z m215 -145 c15 -15 -10 0 -107 65 -49 32 -88 61 -88 64 0 5 179 -113 195
-129z m125 -72 c76 -45 98 -62 112 -90 6 -11 -2 -6 -18 11 -16 18 -68 55 -116
84 -49 28 -88 54 -88 57 0 3 10 -1 23 -9 12 -8 51 -32 87 -53z m2258 53 c9 -9
11 -264 10 -1097 l-3 -1086 -5 1090 -5 1090 -39 -1 c-24 -1 -33 2 -25 7 20 12
53 11 67 -3z m-338 -138 c-140 -71 -259 -129 -265 -129 -5 0 105 58 245 129
140 71 260 129 265 129 6 0 -105 -58 -245 -129z m-1785 -2206 c-3 -12 -12 -25
-22 -28 -16 -6 -16 -6 0 12 16 17 17 99 19 1093 l3 1074 3 -1065 c1 -586 0
-1075 -3 -1086z m1485 2061 c-14 -8 -29 -14 -35 -14 -5 0 1 6 15 14 14 8 30
14 35 14 6 0 -1 -6 -15 -14z m-60 -24 c-8 -5 -26 -11 -40 -15 -21 -5 -20 -3 5
9 32 15 60 20 35 6z m-965 -22 c16 -8 15 -8 -8 -4 -41 8 -67 -3 -68 -28 -1
-20 -2 -20 -6 -3 -9 36 38 56 82 35z m70 -19 c13 -5 14 -9 5 -9 -8 0 -24 4
-35 9 -13 5 -14 9 -5 9 8 0 24 -4 35 -9z m730 -15 c-22 -8 -49 -13 -60 -13
-11 0 0 6 25 13 59 17 87 17 35 0z m-678 -1 c-3 -3 -12 -4 -19 -1 -8 3 -5 6 6
6 11 1 17 -2 13 -5z m46 -11 c-7 -2 -19 -2 -25 0 -7 3 -2 5 12 5 14 0 19 -2
13 -5z m50 -10 c-7 -2 -19 -2 -25 0 -7 3 -2 5 12 5 14 0 19 -2 13 -5z m490 0
c-7 -2 -19 -2 -25 0 -7 3 -2 5 12 5 14 0 19 -2 13 -5z m-415 -10 c-10 -2 -28
-2 -40 0 -13 2 -5 4 17 4 22 1 32 -1 23 -4z m360 0 c-10 -2 -26 -2 -35 0 -10
3 -2 5 17 5 19 0 27 -2 18 -5z m-125 -10 c-40 -2 -106 -2 -145 0 -40 1 -8 3
72 3 80 0 112 -2 73 -3z m-3540 -1150 c-13 -2 -35 -2 -50 0 -16 2 -5 4 22 4
28 0 40 -2 28 -4z m-105 -10 c-10 -2 -28 -2 -40 0 -13 2 -5 4 17 4 22 1 32 -1
23 -4z m-75 -10 c-7 -2 -21 -2 -30 0 -10 3 -4 5 12 5 17 0 24 -2 18 -5z m-60
-10 c-7 -2 -21 -2 -30 0 -10 3 -4 5 12 5 17 0 24 -2 18 -5z m-60 -10 c-7 -2
-21 -2 -30 0 -10 3 -4 5 12 5 17 0 24 -2 18 -5z m-73 -13 c-14 -4 -34 -8 -45
-8 -16 0 -15 2 5 8 14 4 34 8 45 8 16 0 15 -2 -5 -8z m-155 -36 c-49 -13 -94
-22 -100 -20 -12 3 143 44 170 44 11 0 -20 -11 -70 -24z m1542 10 c-3 -3 -12
-4 -19 -1 -8 3 -5 6 6 6 11 1 17 -2 13 -5z m98 -25 c14 -6 9 -7 -15 -3 -19 4
-44 11 -55 15 -14 6 -9 7 15 3 19 -4 44 -11 55 -15z m-1785 -24 c-19 -7 -42
-13 -50 -13 -8 0 1 6 20 13 19 7 42 13 50 13 8 0 -1 -6 -20 -13z m1885 -5 c28
-10 43 -18 35 -18 -8 0 -37 8 -65 18 -27 10 -43 18 -35 18 8 0 38 -8 65 -18z
m-2034 -41 c-30 -10 -56 -17 -58 -15 -5 5 77 34 97 34 8 1 -9 -8 -39 -19z
m2167 -4 c29 -9 52 -19 49 -21 -5 -5 -127 36 -127 43 0 3 6 3 13 1 6 -3 36
-13 65 -23z m-2238 -19 c0 -6 -93 -37 -97 -32 -2 2 15 11 39 19 47 17 58 19
58 13z m2421 -51 c60 -25 127 -54 147 -66 49 -27 30 -20 -113 41 -152 64 -162
68 -152 69 5 1 58 -19 118 -44z m-2541 5 c-8 -5 -19 -10 -25 -10 -5 0 -3 5 5
10 8 5 20 10 25 10 6 0 3 -5 -5 -10z m-50 -20 c-8 -5 -19 -10 -25 -10 -5 0 -3
5 5 10 8 5 20 10 25 10 6 0 3 -5 -5 -10z m-50 -20 c-8 -5 -19 -10 -25 -10 -5
0 -3 5 5 10 8 5 20 10 25 10 6 0 3 -5 -5 -10z m-60 -25 c-14 -8 -29 -14 -35
-14 -5 0 1 6 15 14 14 8 30 14 35 14 6 0 -1 -6 -15 -14z m1632 -34 l28 -31 0
-236 0 -235 -25 -24 c-23 -24 -30 -25 -149 -25 -119 0 -126 1 -155 26 l-31 26
0 237 c0 310 -4 304 190 297 113 -5 115 -5 142 -35z m-1692 9 c-8 -5 -19 -10
-25 -10 -5 0 -3 5 5 10 8 5 20 10 25 10 6 0 3 -5 -5 -10z m3070 -55 c50 -25
90 -47 90 -50 0 -5 -179 82 -189 91 -14 13 20 -1 99 -41z m-2129 6 c24 -19 24
-21 27 -245 4 -308 7 -303 -191 -347 -110 -24 -143 -20 -157 17 -6 14 -10 120
-10 235 0 287 3 293 165 333 123 30 137 31 166 7z m1364 -37 c154 -44 155 -46
155 -343 0 -251 -2 -261 -58 -261 -57 0 -234 57 -261 84 l-26 26 -3 236 c-3
201 -1 239 13 260 21 32 65 32 180 -2z m1100 -182 c112 -76 158 -113 95 -74
-62 37 -301 206 -308 217 -3 5 18 -8 48 -29 30 -22 105 -73 165 -114z m-3181
2 c14 -13 16 -49 16 -240 0 -302 4 -294 -174 -369 -117 -48 -141 -50 -157 -8
-12 32 -12 418 1 464 14 51 54 83 155 128 98 43 135 49 159 25z m2774 -83
c159 -80 162 -86 162 -368 0 -114 -3 -218 -6 -231 -11 -39 -43 -36 -149 13
-176 82 -175 79 -175 370 0 137 4 234 10 246 17 30 52 23 158 -30z m2896 14
c-16 -25 -71 -61 -80 -52 -3 2 9 10 26 17 17 7 38 25 47 41 9 16 19 27 21 25
2 -3 -4 -16 -14 -31z m-2299 -60 l20 -16 -20 10 c-11 5 -29 17 -40 26 l-20 16
20 -10 c11 -5 29 -17 40 -26z m2184 -9 c-10 -9 -329 -166 -329 -161 0 6 311
164 324 164 5 1 7 -1 5 -3z m-2119 -32 c0 -2 -9 0 -20 6 -11 6 -20 13 -20 16
0 2 9 0 20 -6 11 -6 20 -13 20 -16z m76 -42 c-5 -4 -66 26 -66 33 0 3 16 -3
35 -12 19 -9 33 -18 31 -21z m483 -209 c19 -13 28 -23 21 -23 -22 0 -80 67
-79 92 0 18 2 16 12 -12 7 -19 27 -44 46 -57z m1086 46 c-44 -21 -84 -38 -90
-38 -13 0 147 77 160 77 6 0 -26 -17 -70 -39z m-1676 -101 c167 -99 161 -86
161 -386 0 -257 -3 -272 -50 -257 -42 13 -191 108 -215 137 -40 48 -46 93 -43
329 4 278 -5 268 147 177z m1571 57 c0 -7 -181 -63 -225 -69 -22 -3 -2 5 45
18 47 14 103 31 125 40 44 16 55 18 55 11z m717 -35 c9 -18 13 -86 13 -235 0
-280 1 -277 -160 -357 -63 -31 -122 -57 -131 -57 -37 -2 -40 20 -37 272 4 295
-4 278 148 355 114 58 147 62 167 22z m-1612 0 c13 -5 14 -9 5 -9 -8 0 -24 4
-35 9 -13 5 -14 9 -5 9 8 0 24 -4 35 -9z m52 -16 c-3 -3 -12 -4 -19 -1 -8 3
-5 6 6 6 11 1 17 -2 13 -5z m103 -19 c36 -7 52 -13 35 -13 -31 0 -142 25 -115
26 8 1 44 -5 80 -13z m463 -12 c-7 -2 -21 -2 -30 0 -10 3 -4 5 12 5 17 0 24
-2 18 -5z m-315 -10 c-16 -2 -40 -2 -55 0 -16 2 -3 4 27 4 30 0 43 -2 28 -4z
m245 0 c-13 -2 -35 -2 -50 0 -16 2 -5 4 22 4 28 0 40 -2 28 -4z m-125 -10
c-16 -2 -40 -2 -55 0 -16 2 -3 4 27 4 30 0 43 -2 28 -4z m490 -239 c22 -15 22
-19 22 -253 0 -231 -1 -239 -23 -272 -27 -40 -63 -58 -171 -89 -150 -42 -158
-26 -154 275 4 275 -2 264 188 323 115 36 110 36 138 16z m-890 -25 c95 -24
122 -36 145 -60 l27 -29 0 -240 c0 -310 5 -304 -180 -255 -164 44 -170 57
-170 355 0 207 1 221 20 240 11 11 25 20 31 20 5 0 63 -14 127 -31z"/>
</g>
</svg>
